<svg id="Layer_1" xmlns="http://www.w3.org/2000/svg" xmlns:xlink="http://www.w3.org/1999/xlink" viewBox="0 0 27.3 28.8"><style>.st0{clip-path:url(#SVGID_2_);fill:#FFFFFF;} .st1{fill:none;stroke:#61A845;stroke-miterlimit:10;} .st2{clip-path:url(#SVGID_4_);fill:#87C440;} .st3{clip-path:url(#SVGID_6_);fill:#87C440;} .st4{clip-path:url(#SVGID_8_);fill:#87C440;} .st5{clip-path:url(#SVGID_10_);fill:#87C440;} .st6{clip-path:url(#SVGID_12_);fill:#87C440;}</style><defs><path id="SVGID_1_" d="M11 26.5c.9.2 1.8 1.8 2.7 1.8 1.1 0 2.2-1.7 3.2-1.9 5.7-1.4 10-6.6 10-12.8C26.9 6.3 21 .4 13.7.4S.5 6.4.5 13.7C.5 20 5 25.3 11 26.5z"/></defs><clipPath id="SVGID_2_"><use xlink:href="#SVGID_1_" overflow="visible"/></clipPath><path class="st0" d="M-4.5-4.5h36.3v37.8H-4.5z"/><path class="st1" d="M11 26.5c.9.2 1.8 1.8 2.7 1.8 1.1 0 2.2-1.7 3.2-1.9 5.7-1.4 10-6.6 10-12.8C26.9 6.3 21 .4 13.7.4 6.4.5.5 6.4.5 13.7.5 20 5 25.3 11 26.5z"/><circle class="st1" cx="13.7" cy="13.7" r="10.6"/><defs><circle id="SVGID_3_" cx="17.9" cy="9.4" r="2.1"/></defs><clipPath id="SVGID_4_"><use xlink:href="#SVGID_3_" overflow="visible"/></clipPath><path class="st2" d="M10.8 2.3H25v14.2H10.8z"/><g><defs><circle id="SVGID_5_" cx="9.4" cy="9.4" r="2.1"/></defs><clipPath id="SVGID_6_"><use xlink:href="#SVGID_5_" overflow="visible"/></clipPath><path class="st3" d="M2.3 2.3h14.2v14.2H2.3z"/></g><g><defs><circle id="SVGID_7_" cx="7.7" cy="15.3" r="2.1"/></defs><clipPath id="SVGID_8_"><use xlink:href="#SVGID_7_" overflow="visible"/></clipPath><path class="st4" d="M.6 8.2h14.2v14.2H.6z"/></g><g><defs><circle id="SVGID_9_" cx="19.6" cy="15.3" r="2.1"/></defs><clipPath id="SVGID_10_"><use xlink:href="#SVGID_9_" overflow="visible"/></clipPath><path class="st5" d="M12.5 8.2h14.2v14.2H12.5z"/></g><g><defs><circle id="SVGID_11_" cx="13.7" cy="19.6" r="3"/></defs><clipPath id="SVGID_12_"><use xlink:href="#SVGID_11_" overflow="visible"/></clipPath><path class="st6" d="M5.7 11.6h15.9v15.9H5.7z"/></g></svg>