<svg width="68" height="50" viewBox="0 0 68 50" xmlns="http://www.w3.org/2000/svg"><title>Icon_Navi</title><g fill="#7DB33E" fill-rule="evenodd"><path d="M39.803 20.592l17.623 18.022v-4.28l-11.54-9.85v.965h-.807v-1.653l-3.756-3.205 3.755 2.957v-4.924l-3.553-3.54 3.954-3.94 3.955 3.94-3.55 3.538v5.56l11.54 9.087V8.417H9.902V33.27l16.104-12.678L9.9 34.334v4.28l17.623-18.022h12.28"/><path d="M60.91 0H6.416C2.886 0 0 2.87 0 6.378v34.218c0 3.51 2.872 6.67 6.383 7.025l20.87 2.113c3.51.356 9.257.356 12.766.002L60.94 47.62c3.51-.353 6.385-3.515 6.385-7.024V6.378C67.327 2.87 64.44 0 60.91 0zM9.9 44.554c-.82 0-1.484-.664-1.484-1.484s.664-1.486 1.485-1.486c.82 0 1.486.666 1.486 1.486s-.665 1.484-1.485 1.484zm4.704.496c-.956 0-1.733-.777-1.733-1.733 0-.956.778-1.733 1.734-1.733.955 0 1.733.777 1.733 1.733 0 .955-.778 1.733-1.733 1.733zM7.92 6.93H59.9v33.664H7.92V6.93z"/><path d="M32.4 35.644l-.222 3.465h2.97l-.222-3.466H32.4M32.995 21.782l-.322 3.96h1.485l-.323-3.96h-.84M32.178 34.22h2.97l-.526-6.932h-1.915l-.53 6.93"/></g></svg>