<svg width="203" height="53" viewBox="0 0 203 53" xmlns="http://www.w3.org/2000/svg"><title>Icon Connector Selector</title><g fill="none" fill-rule="evenodd"><path d="M.53 28.278c.053-.28.156-.61.362-1.04l18.676-14.69h37.577c.87-.053 1.342.354 1.755.83L71.46 25.84l27.467 4.52c.382.33.765.654 1.073 1.506l-.06 9.36c-.594 1.5-1 1.306-1.45 1.515H93.2c0-12.725-19.135-12.676-19.135 0H25.27c0-12.752-18.994-12.726-18.994 0H1.942c-.727-.066-1.136-.703-1.483-1.45L.53 28.28zm40.335-.603H66.9c.99-.388 1.124-.974.71-1.69l-9.358-9.148c-.21-.177-.378-.422-.744-.368H40.865v11.205zm-26.956.002h23.86V16.47h-14c-.367-.054-.533.19-.744.37l-8.02 8c-.74 1.104-2.227 2.614-1.097 2.837z" fill="#FFF"/><path d="M83.68 35.067c4.29 0 7.767 3.444 7.767 7.694s-3.478 7.696-7.768 7.696c-4.29 0-7.77-3.445-7.77-7.695s3.48-7.693 7.77-7.693zm0 10.923c1.81 0 3.278-1.454 3.278-3.247 0-1.794-1.468-3.248-3.28-3.248-1.808 0-3.277 1.454-3.277 3.248.002 1.793 1.47 3.247 3.28 3.247zM15.774 35.063c4.29 0 7.768 3.445 7.768 7.695s-3.478 7.695-7.768 7.695c-4.29 0-7.768-3.445-7.768-7.695s3.477-7.695 7.768-7.695zm0 10.927c1.81 0 3.278-1.454 3.278-3.247 0-1.794-1.468-3.248-3.278-3.248s-3.278 1.454-3.278 3.248c0 1.793 1.467 3.247 3.278 3.247z" fill="#FF8929"/><g transform="translate(163)"><rect fill="#FFF" width="40" height="53" rx="4"/><circle fill="#FF8929" cx="20.5" cy="21.5" r="11.5"/></g><text font-family=".AppleSystemUIFont" font-size="22" fill="#FFF"><tspan x="178" y="28">?</tspan></text><g><path d="M114.128 35.286v-1.978H111V30.01h3.128v-2.417h4.58c2.53 0 4.58 2.05 4.58 4.577v4.254c0 2.527-2.056 4.576-4.58 4.576h-4.58v-2.418H111v-3.296h3.128z" fill="#FFF"/><path d="M118.53 34h11.618" stroke="#FFF" stroke-width="2" stroke-linecap="square"/><path d="M151.26 28.692v-1.978h3.13v-3.296h-3.13V21h-4.58c-2.528 0-4.58 2.05-4.58 4.576v4.254c0 2.528 2.057 4.577 4.58 4.577h4.58V31.99h3.13V28.69h-3.13z" fill="#FFF"/><path d="M131.96 27h11.617M132 34.077V27.48" stroke="#FFF" stroke-width="2" stroke-linecap="square"/></g></g></svg>