<svg id="Layer_1" xmlns="http://www.w3.org/2000/svg" xmlns:xlink="http://www.w3.org/1999/xlink" viewBox="-290 413.7 14.9 15.2"><style>.st0{clip-path:url(#SVGID_2_);fill:#FFFFFF;stroke:#8EBD4F;stroke-miterlimit:10;}</style><defs><path id="SVGID_1_" d="M-281.7 426.3v-.8c0-.5-.4-.8-.8-.8-.5 0-.8.4-.8.8v.8c-2.1-.4-3.7-2-4.1-4.1h.8c.5 0 .8-.4.8-.8 0-.5-.4-.8-.8-.8h-.8c.4-2.1 2-3.8 4.1-4.1v.8c0 .5.4.8.8.8.5 0 .8-.4.8-.8v-1c2.1.4 3.7 2 4.1 4.1h-.8c-.5 0-.8.4-.8.8 0 .5.4.8.8.8h.8c-.4 2.2-2 3.9-4.1 4.3zm6.6-5v-.8h-.9c-.4-3-2.7-5.5-5.7-5.8v-.9c-.3-.1-.6-.1-.9-.1-.3 0-.5 0-.8.1v.9c-3 .4-5.4 2.8-5.7 5.8h-.9v1.6h.8c.4 3 2.7 5.5 5.7 5.8v.9h.8c.3 0 .6 0 .8-.1v-.9c3-.4 5.4-2.8 5.7-5.8h.8c.3-.2.3-.4.3-.7z"/></defs><use xlink:href="#SVGID_1_" overflow="visible" fill="#FFF"/><clipPath id="SVGID_2_"><use xlink:href="#SVGID_1_" overflow="visible"/></clipPath><path class="st0" d="M-295 408.7h24.9v25.2H-295z"/></svg>