<svg id="Слой_1" xmlns="http://www.w3.org/2000/svg" xmlns:xlink="http://www.w3.org/1999/xlink" viewBox="0 0 26.7 27"><style>.st0{clip-path:url(#SVGID_2_);fill:#FFFFFF;} .st1{fill:none;stroke:#61A945;stroke-miterlimit:10;} .st2{clip-path:url(#SVGID_4_);fill:#89BF45;} .st3{clip-path:url(#SVGID_6_);fill:#89BF45;} .st4{clip-path:url(#SVGID_8_);fill:#89BF45;} .st5{clip-path:url(#SVGID_10_);fill:#89BF45;} .st6{clip-path:url(#SVGID_12_);fill:#89BF45;} .st7{clip-path:url(#SVGID_14_);fill:#89BF45;} .st8{clip-path:url(#SVGID_16_);fill:#89BF45;}</style><defs><path id="SVGID_1_" d="M21.4 4.4c2.5 2.3 4.2 5.7 4.2 9.4 0 7-5.7 12.7-12.7 12.7S.2 20.8.2 13.8c0-3.7 1.6-7.1 4.2-9.4h17z"/></defs><clipPath id="SVGID_2_"><use xlink:href="#SVGID_1_" overflow="visible"/></clipPath><path class="st0" d="M-4.9-.6h35.5v32.2H-4.9z"/><path class="st1" d="M21.9 4.4c2.5 2.3 4.2 5.7 4.2 9.4 0 7-5.7 12.7-12.7 12.7S.6 20.9.6 13.8c0-3.7 1.6-7.1 4.2-9.4h17.1z"/><defs><circle id="SVGID_3_" cx="16.6" cy="8.1" r="2.1"/></defs><clipPath id="SVGID_4_"><use xlink:href="#SVGID_3_" overflow="visible"/></clipPath><path class="st2" d="M9.6 1h14.1v14.1H9.6z"/><defs><circle id="SVGID_5_" cx="10" cy="8.1" r="2.1"/></defs><clipPath id="SVGID_6_"><use xlink:href="#SVGID_5_" overflow="visible"/></clipPath><path class="st3" d="M3 1h14.1v14.1H3z"/><g><defs><circle id="SVGID_7_" cx="13.3" cy="13.8" r="2.9"/></defs><clipPath id="SVGID_8_"><use xlink:href="#SVGID_7_" overflow="visible"/></clipPath><path class="st4" d="M5.5 6h15.8v15.8H5.5z"/></g><g><defs><circle id="SVGID_9_" cx="9.2" cy="20.4" r="2.9"/></defs><clipPath id="SVGID_10_"><use xlink:href="#SVGID_9_" overflow="visible"/></clipPath><path class="st5" d="M1.3 12.5h15.8v15.8H1.3z"/></g><g><defs><circle id="SVGID_11_" cx="17.4" cy="20.4" r="2.9"/></defs><clipPath id="SVGID_12_"><use xlink:href="#SVGID_11_" overflow="visible"/></clipPath><path class="st6" d="M9.6 12.5h15.8v15.8H9.6z"/></g><g><defs><circle id="SVGID_13_" cx="5.9" cy="13.8" r="2.9"/></defs><clipPath id="SVGID_14_"><use xlink:href="#SVGID_13_" overflow="visible"/></clipPath><path class="st7" d="M-1.9 6h15.8v15.8H-1.9z"/></g><g><defs><circle id="SVGID_15_" cx="20.7" cy="13.8" r="2.9"/></defs><clipPath id="SVGID_16_"><use xlink:href="#SVGID_15_" overflow="visible"/></clipPath><path class="st8" d="M12.9 6h15.8v15.8H12.9z"/></g></svg>